<?xml version="1.0" encoding="UTF-8"?>
<svg id="_x32_4x24" xmlns="http://www.w3.org/2000/svg" version="1.1" xmlns:xlink="http://www.w3.org/1999/xlink" viewBox="0 0 24 24">
  <!-- Generator: Adobe Illustrator 29.7.1, SVG Export Plug-In . SVG Version: 2.1.1 Build 8)  -->
  <defs>
    <style>
      .st0, .st1, .st2, .st3, .st4 {
        fill: none;
      }

      .st0, .st1, .st3, .st5, .st4 {
        stroke-linejoin: round;
        stroke-width: .75px;
      }

      .st0, .st3, .st5 {
        stroke-linecap: round;
      }

      .st0, .st5 {
        stroke: #000;
      }

      .st1, .st4 {
        stroke: red;
      }

      .st3 {
        stroke: #a8a8a8;
      }

      .st5 {
        fill: #aef4a2;
      }

      .st4 {
        stroke-dasharray: .76 .76;
      }

      .st6 {
        clip-path: url(#clippath);
      }
    </style>
    <clipPath id="clippath">
      <polygon class="st2" points="15.38 2.93 8.63 4.22 .41 .55 .41 17.32 8.63 20.98 15.38 19.7 23.61 23.45 23.61 6.68 15.38 2.93"/>
    </clipPath>
  </defs>
  <polyline class="st5" points="8.63 20.98 15.38 19.7 23.61 23.45 23.61 6.68 15.38 2.93 8.63 4.22 .41 .55 .41 17.32 8.63 20.98"/>
  <g class="st6">
    <polygon class="st3" points="24.04 8.53 21.19 12.13 15.38 7.94 12.8 7.11 12.8 1.29 11.2 1.55 11.2 10.35 8.63 10.67 .41 7 .41 8.29 8.63 11.96 11.2 11.64 11.2 23.91 12.8 23.87 12.8 9.02 15.38 9.85 20.18 13.41 13.85 21.23 15.62 21.8 25.81 9.11 24.04 8.53"/>
  </g>
  <g>
    <line class="st1" x1="8.63" y1="4.22" x2="8.63" y2="4.6"/>
    <line class="st4" x1="8.63" y1="5.36" x2="8.63" y2="20.23"/>
    <line class="st1" x1="8.63" y1="20.61" x2="8.63" y2="20.98"/>
  </g>
  <g>
    <line class="st1" x1="15.38" y1="2.93" x2="15.38" y2="3.31"/>
    <line class="st4" x1="15.38" y1="4.07" x2="15.38" y2="18.94"/>
    <line class="st1" x1="15.38" y1="19.32" x2="15.38" y2="19.7"/>
  </g>
  <polyline class="st0" points="8.63 20.98 15.38 19.7 23.61 23.45 23.61 6.68 15.38 2.93 8.63 4.22 .41 .55 .41 17.32 8.63 20.98"/>
</svg>